# xmcd
#
# Track frame offsets:
# 150
# 18683
# 38880
# 49614
# 70129
# 87238
# 100415
# 112499
# 129492
# 149301
# 160085
# 185528
# 211626
# 227292
#
# Disc length: 3230 seconds
#
#
# Revision: 0
# Processed by: cddbd v1.4PL0 Copyright (c) Steve Scherf et al.
# Submitted via: FreeRIP 2.51 
#
DISCID=be0c9c0e
DTITLE=Lance and Donna - Long Gone
DYEAR=2002
DGENRE=Blues
TTITLE0=Bad
TTITLE1=I know every train
TTITLE2=Turtle stew
TTITLE3=Last night
TTITLE4=Full house
TTITLE5=Candy man
TTITLE6=Bad water
TTITLE7=Can't stop lovin'
TTITLE8=I'm in the mood for love
TTITLE9=Sugar
TTITLE10=Long distance call
TTITLE11=Evil
TTITLE12=The sun will shine
TTITLE13=Long gone Blues
EXTD=
EXTT0=
EXTT1=
EXTT2=
EXTT3=
EXTT4=
EXTT5=
EXTT6=
EXTT7=
EXTT8=
EXTT9=
EXTT10=
EXTT11=
EXTT12=
EXTT13=
PLAYORDER=
